<svg xmlns="http://www.w3.org/2000/svg" width="20" height="20" viewBox="0 0 20 20" fill="none">
  <g clip-path="url(#clip0_2_82)">
    <path d="M13.3334 18.3333V15.1083C13.3646 14.711 13.3109 14.3115 13.1759 13.9365C13.0408 13.5615 12.8275 13.2195 12.55 12.9333C15.1667 12.6417 17.9167 11.65 17.9167 7.1C17.9165 5.93652 17.4689 4.81766 16.6667 3.975C17.0466 2.95709 17.0197 1.83196 16.5917 0.833332C16.5917 0.833332 15.6084 0.541666 13.3334 2.06667C11.4234 1.54902 9.41001 1.54902 7.50002 2.06667C5.22502 0.541666 4.24169 0.833332 4.24169 0.833332C3.81367 1.83196 3.78681 2.95709 4.16669 3.975C3.35846 4.82392 2.91046 5.95288 2.91669 7.125C2.91669 11.6417 5.66669 12.6333 8.28335 12.9583C8.00918 13.2416 7.79774 13.5795 7.66278 13.9499C7.52782 14.3204 7.47236 14.7151 7.50002 15.1083V18.3333M7.50002 15.8333C3.33335 17.0833 3.33335 13.75 1.66669 13.3333L7.50002 15.8333Z" stroke="#004168" stroke-width="2" stroke-linecap="round" stroke-linejoin="round"/>
  </g>
  <defs>
    <clipPath id="clip0_2_82">
      <rect width="20" height="20" fill="white"/>
    </clipPath>
  </defs>
</svg>