<svg xmlns="http://www.w3.org/2000/svg" width="20" height="20" viewBox="0 0 20 20" fill="none">
  <path d="M17.5 10.6583C17.3689 12.0768 16.8365 13.4287 15.9652 14.5557C15.0938 15.6826 13.9196 16.5382 12.5797 17.0221C11.2399 17.5061 9.78997 17.5984 8.39956 17.2884C7.00916 16.9784 5.73581 16.2788 4.7285 15.2715C3.72119 14.2642 3.0216 12.9908 2.71157 11.6004C2.40154 10.21 2.49391 8.76007 2.97786 7.42025C3.46182 6.08042 4.31734 4.90614 5.44432 4.03479C6.57131 3.16345 7.92314 2.63109 9.34165 2.5C8.51116 3.62356 8.11152 5.00787 8.21542 6.40118C8.31932 7.79448 8.91986 9.10421 9.90781 10.0922C10.8958 11.0801 12.2055 11.6807 13.5988 11.7846C14.9921 11.8885 16.3764 11.4888 17.5 10.6583V10.6583Z" stroke="#004168" stroke-width="2" stroke-linecap="round" stroke-linejoin="round"/>
</svg>